<svg xmlns="http://www.w3.org/2000/svg" width="342.369" height="414.181" id="louis-vuitton"><g data-name="louis vuitton"><path fill-rule="evenodd" d="M334.127 375.379h4.514v38.158l-27.594-28.88v27.46h-4.64v-38.551l27.717 29.01v-27.2Zm-129.682 0v23.332a14.464 14.464 0 0 1-3.485 10.057c-2.446 2.836-5.8 4.124-10.053 4.124a12.324 12.324 0 0 1-9.8-4.124 13.985 13.985 0 0 1-3.611-10.057v-23.332h4.651v21.787c0 7.607 2.836 11.477 8.765 11.477 6.057 0 9.024-3.87 9.024-11.477v-21.787Zm14.18 0h22.043v4.255h-8.765v32.486h-4.383v-32.486h-8.9Zm-7.992 0h4.64v36.741h-4.64v-36.741Zm-40.608 0h5.022l-15.986 38.8-15.984-38.8h5.028l10.958 27.2 10.956-27.2Zm127.877 18.432a14.319 14.319 0 0 1-4.381 10.571 13.628 13.628 0 0 1-10.188 4.255 14.606 14.606 0 0 1-10.438-4.255 14.308 14.308 0 0 1-4.383-10.571 14.528 14.528 0 0 1 14.822-14.824 13.457 13.457 0 0 1 10.443 4.381 14.594 14.594 0 0 1 4.125 10.444Zm-1.029-13.535a19.142 19.142 0 0 0-27.2 0 19.137 19.137 0 0 0 0 27.2 18.867 18.867 0 0 0 13.664 5.417 19.052 19.052 0 0 0 13.538-32.614Zm-33.9-4.9v4.255h-8.638v32.486h-4.64v-32.483h-8.768v-4.255h22.043Zm-213.226 7.99a14.5 14.5 0 0 1 4 10.443 14.708 14.708 0 0 1-4.253 10.571 14.118 14.118 0 0 1-10.314 4.255 14.615 14.615 0 0 1-10.44-4.255 15.252 15.252 0 0 1-4.253-10.571 14.6 14.6 0 0 1 4.122-10.443 13.925 13.925 0 0 1 10.571-4.381 13.727 13.727 0 0 1 10.567 4.381Zm2.967-3.093a18.928 18.928 0 0 0-13.535-5.672 18.294 18.294 0 0 0-13.532 5.675 18.84 18.84 0 0 0 0 27.2 18.366 18.366 0 0 0 13.535 5.417 18.359 18.359 0 0 0 13.535-5.417 19.137 19.137 0 0 0 0-27.2Zm14.053 16.893c0 7.607 2.964 11.477 8.9 11.477 5.8 0 8.9-3.87 8.9-11.477v-21.789h4.512v23.332c0 4.124-1.16 7.476-3.611 10.057a12.313 12.313 0 0 1-9.8 4.124c-4.124 0-7.348-1.288-9.8-4.124-2.579-2.581-3.737-5.933-3.737-10.057v-23.332h4.64v21.789ZM8.24 375.379v32.614h11.215v4.124H3.728v-36.74H8.24Zm110.477 15.081c6.188 2.446 9.154 6.057 9.154 10.956a10.813 10.813 0 0 1-3.48 8.251 10.982 10.982 0 0 1-8.123 3.226 10.789 10.789 0 0 1-7.733-2.967 11.917 11.917 0 0 1-3.739-7.345l4.64-1.034a6.9 6.9 0 0 0 2.063 5.158 7.011 7.011 0 0 0 5.028 1.933 6.665 6.665 0 0 0 4.9-2.192 7.269 7.269 0 0 0 1.8-5.028c0-2.836-2.063-5.154-6.316-6.963l-2.579-.9c-5.156-2.451-7.864-5.543-7.864-9.413a8.759 8.759 0 0 1 3.223-6.963 11.36 11.36 0 0 1 7.607-2.577 10.1 10.1 0 0 1 9.409 5.672l-3.609 2.063a6.705 6.705 0 0 0-5.931-3.352 6.926 6.926 0 0 0-4.255 1.288 4.764 4.764 0 0 0-1.935 3.865c0 2.192 1.676 3.87 5.284 5.158l2.451 1.16Zm-23.46-15.081h4.642v36.741h-4.642ZM276.279 43.266l-88.911 209.85-24.529-53.825 45.308-123.325c3.407-9.537 15.329-13.967 35.43-13.967l7.15-18.733h-105.6l-6.814 18.738c14.99 0 21.122 4.428 18.736 13.967l-22.481 62.682-44.29-95.387c-8.176-10.219-4.089-15.331 11.924-15.331V5.794H0v22.142c19.079 0 31 5.112 36.112 15.331L111.059 202.7 75.97 296.383c-.684 12.6-20.44 18.74-58.6 18.74l-7.153 18.736h291.612l40.54-86.189h-21.122c-19.756 44.626-42.581 67.453-68.131 67.453H119.232l19.758-52.8 17.033 34.064h38.155L301.827 43.266c5.112-15.331 18.4-23.5 39.178-23.5V0h-87.891v19.761c26.573 0 34.069 8.176 23.166 23.5Z" data-name="Path 52072"></path></g></svg>